<?xml version="1.0" standalone="no"?>
<!DOCTYPE svg PUBLIC "-//W3C//DTD SVG 20010904//EN"
 "http://www.w3.org/TR/2001/REC-SVG-20010904/DTD/svg10.dtd">
<svg version="1.0" xmlns="http://www.w3.org/2000/svg"
 width="468.000000pt" height="331.000000pt" viewBox="0 0 468.000000 331.000000"
 preserveAspectRatio="xMidYMid meet">
<g transform="translate(0.000000,331.000000) scale(0.100000,-0.100000)"
fill="#000000" stroke="none">
<path d="M639 2983 l-325 -328 -109 -189 c-61 -104 -112 -194 -114 -199 -2 -5
158 -171 355 -368 313 -313 359 -356 370 -341 6 9 38 62 69 117 32 55 91 157
131 228 41 70 108 186 149 257 136 236 221 384 280 485 32 55 99 172 150 260
163 284 205 355 221 380 l16 25 -434 0 -434 0 -325 -327z"/>
<path d="M2625 3270 c-14 -22 -25 -42 -25 -44 0 -3 -34 -62 -75 -131 -41 -70
-75 -128 -75 -130 0 -2 -27 -50 -61 -107 -97 -164 -99 -172 -27 -98 35 36 121
126 191 200 100 105 125 127 114 100 -8 -19 -80 -185 -161 -369 -100 -227
-144 -336 -136 -341 6 -4 175 -51 376 -104 408 -109 368 -107 410 -27 10 20
51 92 91 160 40 67 73 124 73 126 0 2 27 50 61 107 34 57 72 122 84 145 22 38
88 153 229 395 31 54 56 102 56 106 0 5 -10 18 -23 30 l-23 22 -527 0 -527 0
-25 -40z"/>
<path d="M4221 2644 c-28 -47 -51 -88 -51 -90 0 -2 -11 -21 -23 -42 -13 -20
-67 -112 -120 -204 -54 -93 -139 -241 -191 -331 -51 -89 -105 -182 -119 -207
-14 -25 -68 -119 -121 -209 -53 -90 -96 -165 -96 -167 0 -3 -11 -21 -23 -42
-13 -20 -36 -59 -52 -87 -15 -27 -70 -123 -122 -213 -53 -89 -94 -165 -91
-167 2 -2 332 324 733 725 l730 730 -195 195 c-107 107 -198 195 -202 195 -4
0 -30 -39 -57 -86z"/>
<path d="M1840 1908 c-51 -90 -142 -246 -200 -348 -59 -102 -140 -241 -180
-310 -40 -69 -86 -149 -103 -178 l-30 -54 359 -359 c197 -197 361 -355 365
-351 4 4 41 67 83 140 101 176 311 540 431 747 32 55 99 172 150 260 51 88
118 205 150 260 32 55 67 116 77 135 11 19 29 51 40 70 26 47 40 63 -346 -426
-186 -236 -345 -435 -352 -443 -13 -15 6 40 197 549 58 157 104 288 100 292
-3 3 -145 43 -316 89 -170 45 -315 83 -320 86 -6 2 -53 -70 -105 -159z"/>
</g>
</svg>
